# xmcd CD database file
#
# Track frame offsets:
#	150
#	12176
#	27621
#	51519
#	68596
#	85947
#	102838
#	126864
#	165174
#	180795
#
# Disc length: 2596 seconds
#
# Revision: 0
# Processed by: cddbd v1.5.2PL0 Copyright (c) Steve Scherf et al.
# Submitted via: CDex 1.70beta2
#
DISCID=730a220a
DTITLE=Duke Ellington  - Storyville presents Original Piano Transcriptions
DYEAR=1900
DGENRE=Jazz
TTITLE0=Blues
TTITLE1=C Jam Blues
TTITLE2=Caravan
TTITLE3=Cotton Tail
TTITLE4=Don't Get Around Much Anymore
TTITLE5=Kinda Dukish
TTITLE6=Meditation
TTITLE7=New World A-Comin'
TTITLE8=Satin Doll
TTITLE9=Take The A Train
EXTD=
EXTT0=
EXTT1=
EXTT2=
EXTT3=
EXTT4=
EXTT5=
EXTT6=
EXTT7=
EXTT8=
EXTT9=
PLAYORDER=
